<?xml version="1.0" encoding="utf-8"?>
<!-- Generator: Adobe Illustrator 23.0.4, SVG Export Plug-In . SVG Version: 6.00 Build 0)  -->
<svg version="1.1" id="Livello_1" xmlns="http://www.w3.org/2000/svg" xmlns:xlink="http://www.w3.org/1999/xlink" x="0px" y="0px"
	 viewBox="0 0 452.92 167.69" style="enable-background:new 0 0 452.92 167.69;" xml:space="preserve">
<style type="text/css">
	.st0{fill:#003057;}
	.st1{fill:#6CCA98;}
	.st2{fill:#0C7AB8;}
</style>
<g>
	<path class="st0" d="M79.52,64.33L79.52,64.33c1.91-5.85-0.18-12.26-5.18-15.88c-5-3.62-11.77-3.62-16.77,0
		c-5,3.62-7.09,10.02-5.18,15.88s7.39,9.81,13.57,9.81S77.61,70.18,79.52,64.33"/>
	<polygon class="st1" points="89.58,18.98 71.19,19.03 62.03,34.9 80.46,34.88 89.66,50.68 98.82,34.81 	"/>
	<polygon class="st2" points="89.79,69.11 80.58,84.99 62.24,85.02 71.47,100.85 89.86,100.81 99.02,84.94 	"/>
	<polygon class="st2" points="27.67,44.1 18.52,59.99 27.75,75.82 46.13,75.78 36.91,60.01 46.05,44.06 	"/>
	<rect x="122.17" y="19.01" class="st0" width="15.03" height="82.12"/>
	<path class="st0" d="M197.71,44.4c-4.32-3.4-10.57-5.05-19.11-5.05c-9.28,0-20.01,1.93-28.71,5.15l-0.07,0.03v56.38H164V53.48
		c3.77-1.1,8.68-1.74,13.46-1.74c8.84,0,13.32,3.93,13.32,11.68v37.48h14.04v-38.7C204.82,54,202.5,48.18,197.71,44.4"/>
	<path class="st0" d="M249.35,89.25c-2.03,0.56-4.35,0.84-6.98,0.84c-3.82,0-6.52-1.08-8.11-3.24c-1.59-2.16-2.39-5.75-2.39-10.79
		V50.54h22.18V38.43h-22.18V19.49l-14.43,2.4v54.3c0,4.16,0.36,7.85,1.07,11.09c0.72,3.24,1.95,5.99,3.7,8.27
		c1.75,2.28,4.11,4.02,7.09,5.21c2.98,1.2,6.7,1.8,11.15,1.8c3.66,0,6.84-0.38,9.54-1.14c2.7-0.76,4.89-1.5,6.56-2.22l-2.38-11.51
		C252.98,88.17,251.37,88.69,249.35,89.25"/>
	<path class="st0" d="M278.5,64.04c0.24-1.82,0.68-3.59,1.31-5.33c0.64-1.74,1.53-3.28,2.68-4.62c1.15-1.34,2.56-2.43,4.23-3.26
		c1.67-0.83,3.62-1.24,5.84-1.24c2.15,0,3.99,0.38,5.54,1.12c1.55,0.75,2.86,1.78,3.94,3.08c1.07,1.3,1.89,2.84,2.44,4.62
		c0.56,1.78,0.83,3.65,0.83,5.63H278.5z M292.46,37.62c-3.66,0-7.24,0.69-10.73,2.07c-3.5,1.38-6.6,3.44-9.3,6.16
		c-2.7,2.73-4.87,6.14-6.5,10.25c-1.63,4.11-2.45,8.89-2.45,14.34c0,4.66,0.64,8.95,1.91,12.86c1.27,3.91,3.22,7.31,5.84,10.19
		c2.62,2.88,5.96,5.14,10.02,6.75c4.05,1.62,8.82,2.43,14.31,2.43c2.15,0,4.25-0.12,6.32-0.36c2.07-0.24,3.99-0.53,5.78-0.89
		c1.79-0.36,3.38-0.75,4.77-1.19c1.39-0.43,2.48-0.85,3.28-1.24l-1.91-11.73c-1.67,0.71-3.96,1.38-6.86,2.01
		c-2.9,0.63-6.1,0.95-9.6,0.95c-5.96,0-10.51-1.36-13.65-4.09c-3.14-2.73-4.91-6.58-5.31-11.55h41.14c0.08-0.79,0.14-1.68,0.18-2.67
		c0.04-0.99,0.06-1.88,0.06-2.67c0-10.51-2.4-18.41-7.21-23.7C307.74,40.27,301.04,37.62,292.46,37.62"/>
	<path class="st0" d="M371.58,72.28c-1.55-1.54-3.52-2.92-5.9-4.15c-2.39-1.22-5.29-2.47-8.7-3.73c-2.07-0.71-3.82-1.4-5.25-2.07
		c-1.43-0.67-2.59-1.34-3.46-2.01c-0.88-0.67-1.49-1.4-1.85-2.19c-0.36-0.79-0.54-1.7-0.54-2.72c0-2.05,0.91-3.57,2.74-4.56
		c1.83-0.99,4.21-1.48,7.15-1.48c3.26,0,6.12,0.3,8.58,0.89c2.46,0.59,4.49,1.24,6.08,1.96l2.62-11.61
		c-1.67-0.63-4.17-1.28-7.51-1.96c-3.34-0.67-6.84-1.01-10.49-1.01c-7.23,0-12.96,1.64-17.17,4.92c-4.21,3.28-6.32,7.76-6.32,13.45
		c0,2.92,0.46,5.39,1.37,7.41c0.91,2.01,2.17,3.73,3.76,5.15c1.59,1.42,3.48,2.67,5.66,3.73c2.18,1.07,4.59,2.07,7.21,3.02
		c4.29,1.58,7.37,3.04,9.24,4.38c1.87,1.35,2.8,3.04,2.8,5.1c0,2.21-0.88,3.77-2.62,4.68c-1.75,0.91-4.53,1.36-8.35,1.36
		s-7.21-0.39-10.2-1.19c-2.98-0.79-5.54-1.62-7.69-2.49l-2.5,11.97c1.35,0.55,3.7,1.29,7.03,2.19c3.34,0.91,7.75,1.36,13.24,1.36
		c8.19,0,14.49-1.52,18.9-4.56c4.41-3.04,6.62-7.53,6.62-13.45c0-2.76-0.36-5.14-1.07-7.11C374.26,75.58,373.13,73.82,371.58,72.28"
		/>
	<path class="st0" d="M421.6,90.35c-2.31,0.48-5.68,0.71-10.14,0.71c-3.66,0-6.56-0.65-8.7-1.95c-2.15-1.3-3.22-3.65-3.22-7.05
		c0-1.74,0.4-3.18,1.19-4.33c0.79-1.14,1.85-2.03,3.16-2.67c1.31-0.63,2.78-1.07,4.41-1.3c1.63-0.24,3.24-0.35,4.83-0.35
		c1.83,0,3.5,0.12,5.01,0.35c1.51,0.24,2.66,0.47,3.46,0.71V90.35z M434.3,52.13c-0.84-3.04-2.23-5.63-4.17-7.76
		c-1.95-2.13-4.55-3.79-7.81-4.98c-3.26-1.18-7.27-1.78-12.04-1.78c-3.98,0-7.71,0.32-11.21,0.95c-3.5,0.63-6.16,1.26-7.99,1.9
		l1.79,11.61c1.75-0.63,4.01-1.18,6.8-1.66c2.78-0.47,5.84-0.71,9.18-0.71c2.46,0,4.51,0.32,6.14,0.95
		c1.63,0.63,2.94,1.52,3.93,2.67c0.99,1.15,1.69,2.47,2.09,3.97c0.4,1.5,0.6,3.08,0.6,4.74v2.37c-1.99-0.47-3.86-0.81-5.61-1.01
		c-1.75-0.2-3.42-0.3-5.01-0.3c-3.42,0-6.7,0.34-9.84,1.01c-3.14,0.67-5.9,1.78-8.29,3.32c-2.39,1.54-4.27,3.54-5.67,5.98
		c-1.39,2.45-2.09,5.45-2.09,9.01c0,3.71,0.62,6.83,1.85,9.36c1.23,2.53,2.94,4.58,5.13,6.16c2.18,1.58,4.83,2.73,7.93,3.44
		c3.1,0.71,6.52,1.07,10.26,1.07c5.64,0,10.71-0.34,15.2-1.01c4.49-0.67,7.85-1.24,10.08-1.72V62.15
		C435.55,58.52,435.13,55.18,434.3,52.13"/>
	<path class="st0" d="M427.9,145.19c-0.27,0.42-0.57,0.77-0.91,1.04c-0.34,0.27-0.71,0.46-1.13,0.57c-0.42,0.11-0.89,0.17-1.41,0.17
		c-0.37,0-0.73-0.05-1.07-0.15c-0.34-0.1-0.55-0.18-0.63-0.24l-0.36,1.49c0.09,0.06,0.33,0.14,0.71,0.25
		c0.38,0.11,0.81,0.17,1.27,0.17c0.82,0,1.53-0.09,2.14-0.28c0.61-0.18,1.14-0.47,1.59-0.86c0.46-0.39,0.87-0.88,1.24-1.48
		c0.37-0.6,0.74-1.31,1.09-2.14c0.89-2.09,1.71-4.4,2.47-6.93c0.75-2.53,1.43-5.13,2.04-7.8h-1.81c-0.26,1.22-0.52,2.36-0.78,3.41
		c-0.25,1.05-0.52,2.08-0.79,3.08c-0.27,1-0.57,2.01-0.89,3.03c-0.32,1.01-0.68,2.09-1.1,3.23c-0.57-1.1-1.1-2.23-1.58-3.37
		c-0.48-1.14-0.92-2.26-1.32-3.35c-0.4-1.09-0.75-2.14-1.07-3.17c-0.32-1.02-0.58-1.98-0.78-2.86h-1.92
		c0.29,1.2,0.64,2.42,1.05,3.66c0.41,1.24,0.86,2.49,1.35,3.73c0.49,1.24,1.02,2.47,1.59,3.69c0.57,1.22,1.15,2.39,1.76,3.51
		C428.43,144.23,428.17,144.77,427.9,145.19 M408.56,143.28h1.81v-12.55c0.18-0.07,0.59-0.16,1.21-0.25
		c0.62-0.09,1.36-0.14,2.21-0.14c0.8,0,1.46,0.1,1.99,0.29c0.53,0.19,0.95,0.51,1.28,0.95c0.32,0.44,0.56,1.01,0.7,1.71
		c0.14,0.7,0.21,1.56,0.21,2.57v7.41h1.81v-7.99c0-0.98-0.09-1.87-0.28-2.68c-0.19-0.81-0.5-1.51-0.93-2.09
		c-0.44-0.58-1.02-1.03-1.75-1.34c-0.73-0.31-1.65-0.47-2.74-0.47c-1.32,0-2.43,0.09-3.34,0.28c-0.91,0.18-1.63,0.35-2.17,0.5
		V143.28z M395.83,128.85c-0.66,0.13-1.15,0.27-1.46,0.42l0.25,1.58c0.24-0.09,0.62-0.21,1.14-0.36c0.52-0.15,1.31-0.22,2.37-0.22
		c0.74,0,1.34,0.12,1.79,0.35c0.46,0.23,0.81,0.54,1.06,0.91c0.25,0.38,0.41,0.8,0.49,1.27c0.07,0.47,0.11,0.95,0.11,1.45v0.88
		c-0.07-0.04-0.21-0.08-0.4-0.12c-0.2-0.05-0.43-0.09-0.7-0.14c-0.27-0.05-0.55-0.08-0.83-0.11c-0.29-0.03-0.56-0.04-0.82-0.04
		c-0.87,0-1.68,0.08-2.42,0.25s-1.38,0.43-1.92,0.79c-0.54,0.36-0.95,0.81-1.25,1.37c-0.3,0.55-0.45,1.22-0.45,1.99
		c0,0.81,0.13,1.5,0.4,2.06c0.27,0.56,0.64,1.02,1.11,1.38c0.47,0.36,1.03,0.62,1.67,0.79c0.64,0.17,1.34,0.25,2.1,0.25
		c0.59,0,1.17-0.02,1.74-0.07c0.57-0.05,1.08-0.11,1.54-0.18c0.46-0.07,0.87-0.14,1.23-0.21c0.35-0.06,0.62-0.12,0.81-0.18v-9.01
		c0-0.75-0.09-1.46-0.28-2.1c-0.18-0.65-0.48-1.2-0.89-1.67c-0.41-0.47-0.94-0.84-1.6-1.11c-0.66-0.27-1.46-0.4-2.41-0.4
		C397.28,128.66,396.49,128.72,395.83,128.85 M396.83,141.83c-0.46-0.1-0.85-0.26-1.17-0.48c-0.33-0.22-0.58-0.52-0.75-0.89
		c-0.18-0.37-0.26-0.82-0.26-1.35c0-0.61,0.13-1.1,0.39-1.46c0.26-0.37,0.59-0.66,1-0.87c0.41-0.21,0.85-0.35,1.33-0.42
		c0.48-0.06,0.95-0.1,1.39-0.1c0.78,0,1.39,0.05,1.84,0.15c0.45,0.1,0.77,0.2,0.97,0.29v5.03c-0.37,0.07-0.82,0.13-1.35,0.18
		c-0.53,0.05-1.14,0.07-1.85,0.07C397.8,141.98,397.28,141.93,396.83,141.83 M378.87,142.45c0.32,0.24,0.82,0.49,1.52,0.76
		c0.7,0.27,1.52,0.4,2.46,0.4c1.04,0,1.96-0.18,2.77-0.55c0.81-0.37,1.49-0.88,2.05-1.54c0.56-0.65,0.98-1.44,1.27-2.35
		c0.29-0.91,0.43-1.91,0.43-3c0-1.16-0.17-2.2-0.51-3.12c-0.34-0.92-0.83-1.7-1.45-2.35c-0.62-0.64-1.36-1.14-2.23-1.48
		c-0.86-0.34-1.82-0.51-2.88-0.51c-1.28,0-2.34,0.08-3.17,0.25s-1.52,0.34-2.06,0.52v18.91h1.81V142.45z M378.87,130.73
		c0.28-0.09,0.69-0.18,1.24-0.26c0.55-0.08,1.27-0.12,2.16-0.12c1.56,0,2.81,0.5,3.76,1.51c0.95,1,1.42,2.45,1.42,4.33
		c0,0.79-0.08,1.54-0.25,2.25c-0.17,0.71-0.44,1.33-0.81,1.85c-0.37,0.53-0.86,0.94-1.46,1.24s-1.35,0.46-2.24,0.46
		c-0.43,0-0.84-0.04-1.22-0.12c-0.39-0.08-0.75-0.19-1.09-0.32c-0.33-0.13-0.63-0.27-0.88-0.42c-0.25-0.15-0.46-0.29-0.63-0.41
		V130.73z M352.49,143.28h1.81v-12.55c0.17-0.07,0.55-0.16,1.15-0.25c0.6-0.09,1.34-0.14,2.21-0.14c0.78,0,1.4,0.12,1.88,0.35
		c0.47,0.23,0.84,0.57,1.1,1.02c0.26,0.45,0.43,1.02,0.51,1.71c0.08,0.69,0.13,1.51,0.13,2.45v7.41h1.81v-8.13
		c0-0.66-0.04-1.3-0.12-1.89c-0.08-0.6-0.21-1.14-0.38-1.62c0.09-0.07,0.25-0.18,0.46-0.33c0.21-0.15,0.49-0.29,0.82-0.44
		c0.33-0.15,0.73-0.27,1.18-0.37c0.45-0.1,0.96-0.15,1.52-0.15c0.74,0,1.34,0.12,1.81,0.35c0.46,0.23,0.82,0.57,1.07,1.02
		c0.25,0.45,0.42,1.02,0.5,1.71c0.08,0.69,0.12,1.51,0.12,2.45v7.41h1.81v-7.99c0-0.96-0.07-1.84-0.19-2.65
		c-0.13-0.81-0.38-1.51-0.75-2.09s-0.89-1.03-1.57-1.35c-0.68-0.32-1.56-0.48-2.66-0.48c-0.67,0-1.28,0.07-1.82,0.19
		s-1.02,0.29-1.43,0.47c-0.41,0.18-0.75,0.36-1.02,0.54c-0.27,0.18-0.45,0.3-0.54,0.37c-0.82-1.05-2.13-1.58-3.95-1.58
		c-1.37,0-2.49,0.09-3.35,0.28c-0.86,0.18-1.56,0.35-2.1,0.5V143.28z M344.84,140.41c-0.83,1.05-1.97,1.58-3.39,1.58
		c-1.43,0-2.56-0.52-3.4-1.58c-0.83-1.05-1.25-2.47-1.25-4.26c0-1.79,0.42-3.21,1.25-4.27c0.83-1.06,1.97-1.59,3.4-1.59
		c1.43,0,2.56,0.53,3.39,1.59c0.84,1.06,1.25,2.49,1.25,4.27C346.09,137.94,345.67,139.36,344.84,140.41 M347.52,133.08
		c-0.32-0.92-0.78-1.71-1.36-2.36c-0.58-0.65-1.28-1.16-2.07-1.52c-0.8-0.36-1.68-0.54-2.64-0.54c-0.96,0-1.85,0.18-2.64,0.54
		c-0.8,0.36-1.49,0.87-2.07,1.52c-0.58,0.65-1.04,1.44-1.36,2.36c-0.32,0.92-0.49,1.94-0.49,3.07c0,1.12,0.16,2.15,0.49,3.07
		c0.33,0.92,0.78,1.71,1.36,2.35c0.58,0.64,1.27,1.15,2.07,1.51c0.8,0.36,1.68,0.54,2.64,0.54c0.96,0,1.85-0.18,2.64-0.54
		c0.8-0.36,1.49-0.86,2.07-1.51c0.58-0.65,1.04-1.43,1.36-2.35c0.32-0.92,0.49-1.94,0.49-3.07
		C348.01,135.02,347.85,134,347.52,133.08 M328.47,143.57c0.63-0.08,1.19-0.19,1.67-0.32c0.48-0.13,0.88-0.25,1.2-0.37
		c0.32-0.12,0.54-0.22,0.67-0.32l-0.53-1.6c-0.43,0.24-1.05,0.48-1.88,0.71c-0.83,0.23-1.85,0.35-3.07,0.35
		c-1.11,0-2.1-0.19-2.96-0.58c-0.86-0.39-1.59-0.94-2.18-1.66c-0.59-0.72-1.04-1.59-1.35-2.61c-0.31-1.02-0.46-2.17-0.46-3.44
		c0-1.24,0.15-2.36,0.46-3.37c0.31-1.01,0.76-1.89,1.38-2.63c0.61-0.74,1.37-1.31,2.27-1.72c0.9-0.4,1.95-0.61,3.16-0.61
		c1.06,0,1.94,0.13,2.66,0.4c0.71,0.27,1.3,0.54,1.77,0.82l0.61-1.63c-0.17-0.11-0.41-0.24-0.72-0.37c-0.32-0.14-0.7-0.28-1.14-0.42
		s-0.96-0.25-1.56-0.35c-0.59-0.09-1.25-0.14-1.98-0.14c-1.17,0-2.29,0.22-3.37,0.65s-2.02,1.07-2.84,1.92
		c-0.82,0.85-1.47,1.89-1.96,3.14c-0.49,1.24-0.74,2.67-0.74,4.27c0,1.6,0.23,3.03,0.68,4.27c0.45,1.24,1.08,2.29,1.86,3.14
		c0.79,0.85,1.71,1.49,2.78,1.94c1.07,0.44,2.22,0.66,3.46,0.66C327.14,143.7,327.84,143.66,328.47,143.57 M297.38,140.52
		c0.18-0.46,0.45-1.07,0.79-1.82c0.34-0.76,0.73-1.58,1.15-2.48c0.43-0.89,0.86-1.82,1.31-2.76c0.45-0.95,0.87-1.84,1.28-2.67
		c0.41-0.83,0.77-1.56,1.08-2.18c0.32-0.63,0.55-1.07,0.7-1.33c0.24,2.31,0.43,4.81,0.57,7.51c0.14,2.7,0.26,5.53,0.38,8.5h1.92
		c-0.17-3.48-0.36-6.82-0.57-10.01c-0.21-3.19-0.48-6.24-0.79-9.15h-1.59c-0.56,0.92-1.15,1.99-1.78,3.19
		c-0.63,1.21-1.26,2.46-1.88,3.76c-0.62,1.3-1.23,2.58-1.81,3.84c-0.58,1.26-1.1,2.4-1.55,3.41c-0.45-1.01-0.96-2.15-1.55-3.41
		c-0.58-1.26-1.19-2.54-1.81-3.84c-0.62-1.3-1.25-2.55-1.88-3.76c-0.63-1.21-1.23-2.27-1.78-3.19h-1.67
		c-0.32,2.91-0.58,5.96-0.79,9.15c-0.21,3.19-0.4,6.53-0.57,10.01h1.86c0.11-2.97,0.24-5.8,0.38-8.5c0.14-2.7,0.33-5.2,0.57-7.51
		c0.15,0.26,0.38,0.7,0.7,1.33c0.32,0.63,0.68,1.36,1.09,2.18c0.41,0.83,0.84,1.72,1.29,2.67c0.45,0.95,0.89,1.87,1.31,2.76
		c0.43,0.89,0.82,1.72,1.16,2.48c0.34,0.76,0.61,1.36,0.8,1.82H297.38z M270.8,125.75c0.32-0.06,0.71-0.1,1.18-0.14
		c0.47-0.04,1.05-0.06,1.74-0.06c0.85,0,1.63,0.06,2.34,0.18c0.71,0.12,1.31,0.32,1.82,0.59c0.51,0.28,0.9,0.63,1.18,1.06
		c0.28,0.43,0.42,0.96,0.42,1.58c0,0.7-0.13,1.27-0.39,1.72c-0.26,0.45-0.62,0.81-1.07,1.07c-0.45,0.27-0.99,0.45-1.6,0.55
		s-1.26,0.15-1.95,0.15h-3.67V125.75z M274.81,134.08c0.85,0,1.63,0.05,2.32,0.17c0.7,0.11,1.29,0.31,1.77,0.6s0.85,0.68,1.11,1.17
		c0.26,0.49,0.39,1.1,0.39,1.85c0,0.81-0.19,1.48-0.56,2c-0.37,0.52-0.86,0.92-1.47,1.22c-0.61,0.3-1.32,0.5-2.13,0.61
		c-0.81,0.11-1.64,0.17-2.49,0.17c-0.57,0-1.14-0.02-1.7-0.07c-0.56-0.05-0.97-0.09-1.25-0.12v-7.58H274.81z M280.24,142.02
		c1.45-0.95,2.17-2.33,2.17-4.14c0-0.76-0.1-1.41-0.29-1.95c-0.19-0.54-0.47-1.01-0.82-1.38c-0.35-0.38-0.76-0.69-1.22-0.93
		c-0.46-0.24-0.97-0.42-1.53-0.55c0.89-0.28,1.6-0.78,2.13-1.5c0.53-0.73,0.79-1.61,0.79-2.64c0-0.94-0.21-1.73-0.63-2.36
		c-0.42-0.64-0.98-1.15-1.68-1.53c-0.71-0.39-1.53-0.66-2.46-0.83c-0.94-0.17-1.92-0.25-2.96-0.25c-0.35,0-0.74,0.01-1.16,0.03
		c-0.42,0.02-0.84,0.05-1.28,0.1c-0.44,0.05-0.86,0.1-1.27,0.17c-0.41,0.06-0.78,0.14-1.11,0.24v18.44c0.28,0.07,0.61,0.14,1,0.21
		c0.39,0.07,0.8,0.12,1.24,0.17c0.43,0.05,0.86,0.08,1.28,0.11c0.42,0.03,0.78,0.04,1.1,0.04
		C276.55,143.45,278.79,142.97,280.24,142.02 M261.45,143.28h1.89v-19.16h-1.89V143.28z M238.23,143.28h1.81v-12.55
		c0.18-0.07,0.59-0.16,1.21-0.25c0.62-0.09,1.36-0.14,2.21-0.14c0.8,0,1.46,0.1,1.99,0.29c0.53,0.19,0.96,0.51,1.28,0.95
		c0.32,0.44,0.56,1.01,0.7,1.71c0.14,0.7,0.21,1.56,0.21,2.57v7.41h1.81v-7.99c0-0.98-0.09-1.87-0.28-2.68
		c-0.19-0.81-0.5-1.51-0.93-2.09c-0.44-0.58-1.02-1.03-1.75-1.34c-0.73-0.31-1.65-0.47-2.74-0.47c-1.32,0-2.43,0.09-3.34,0.28
		c-0.91,0.18-1.63,0.35-2.17,0.5V143.28z M228.37,131.12c0.67,1.64,1.37,3.41,2.08,5.31h-8.23c0.71-1.9,1.39-3.66,2.05-5.3
		c0.66-1.64,1.34-3.25,2.04-4.85C227.01,127.86,227.69,129.47,228.37,131.12 M235.03,143.28c-0.78-1.99-1.49-3.85-2.13-5.58
		c-0.65-1.73-1.28-3.36-1.91-4.89c-0.63-1.54-1.25-3.01-1.86-4.44c-0.61-1.42-1.26-2.84-1.94-4.26h-1.67
		c-0.68,1.42-1.33,2.85-1.95,4.26c-0.62,1.42-1.24,2.9-1.87,4.43c-0.63,1.54-1.27,3.17-1.92,4.89c-0.65,1.72-1.34,3.58-2.08,5.58
		h1.98c0.34-0.94,0.67-1.84,0.98-2.71c0.31-0.87,0.62-1.72,0.95-2.55h9.42c0.28,0.82,0.58,1.67,0.89,2.54
		c0.31,0.87,0.65,1.77,1.01,2.71H235.03z"/>
</g>
</svg>
